<svg version="1.1" id="Layer_1" xmlns="http://www.w3.org/2000/svg" xmlns:xlink="http://www.w3.org/1999/xlink" x="0px" y="0px"
	 width="100%" viewBox="0 0 343 108" enable-background="new 0 0 343 108" xml:space="preserve">
<path fill="#000000" opacity="1.000000" stroke="none" 
	d="
M220.000000,109.000000 
	C146.666687,109.000000 73.833374,109.000000 1.000049,109.000000 
	C1.000033,73.000031 1.000033,37.000065 1.000016,1.000073 
	C115.333260,1.000049 229.666519,1.000049 343.999817,1.000024 
	C343.999878,36.999924 343.999878,72.999847 343.999939,108.999886 
	C302.833344,109.000000 261.666656,109.000000 220.000000,109.000000 
M329.243988,38.024719 
	C328.087646,38.001450 326.887665,38.171612 325.782410,37.922047 
	C320.468048,36.722065 320.079559,37.039337 319.901611,43.622257 
	C319.737915,44.720242 319.028961,46.241104 319.499207,46.847366 
	C322.481598,50.692528 327.339630,51.397881 330.938019,47.834465 
	C332.856262,45.934849 334.053497,42.521900 334.125641,39.754177 
	C334.204987,36.710911 332.273285,34.004395 328.324554,34.058983 
	C328.984680,35.555130 329.544891,36.824776 329.243988,38.024719 
M233.589966,80.975761 
	C233.589966,80.975761 233.642014,81.019165 233.970520,79.477547 
	C233.741074,78.475639 233.511642,77.473732 233.276993,76.370270 
	C233.276993,76.370270 233.181885,76.334282 233.920441,75.770042 
	C233.891052,70.541489 233.861664,65.312943 233.981506,59.273922 
	C233.986557,52.368477 234.127991,45.458614 233.904724,38.560558 
	C233.845886,36.742607 232.660202,34.961121 231.081909,33.013359 
	C229.440460,33.009064 227.799011,33.001297 226.157562,33.001068 
	C218.797363,33.000046 218.797363,33.000820 218.994156,41.368958 
	C218.995422,54.262829 218.926788,67.157570 219.086716,80.049477 
	C219.106628,81.653824 220.338562,83.243141 221.915970,84.987953 
	C224.849777,84.991646 227.783646,84.984039 230.717361,85.002289 
	C233.531250,85.019791 234.591934,83.775200 233.589966,80.975761 
M203.006546,71.342400 
	C202.705673,70.881721 202.404800,70.421043 201.975037,69.035881 
	C201.975037,61.106041 201.975037,53.176201 201.975037,44.875652 
	C206.568192,44.875652 210.650558,44.875652 214.729828,44.875652 
	C214.729828,40.753288 214.729828,37.017769 214.729828,32.893505 
	C210.406006,32.893505 206.323822,32.893505 201.989197,32.893505 
	C201.989197,31.196033 202.003799,29.894402 201.986908,28.593176 
	C201.843933,17.582960 203.786896,19.209299 192.067535,18.964787 
	C189.083023,18.902515 187.788849,19.869694 187.974380,22.977654 
	C188.169479,26.245924 188.018066,29.534878 188.018066,32.867348 
	C185.735123,32.980820 183.984634,33.067825 182.256775,33.153706 
	C182.256775,37.280312 182.256775,41.029106 182.256775,45.128235 
	C184.255676,45.128235 185.996994,45.128235 188.016235,45.128235 
	C188.016235,53.779087 188.178055,62.078342 187.959549,70.367569 
	C187.813065,75.925064 189.316513,80.569542 194.135422,83.555573 
	C200.543991,87.526619 207.156586,86.226982 213.672836,83.665016 
	C214.193893,83.460144 214.831970,82.707794 214.846100,82.194183 
	C214.947006,78.527214 214.899963,74.856171 214.899963,72.659508 
	C210.099640,72.379822 206.587051,72.175171 203.006546,71.342400 
M127.008926,64.825333 
	C131.353516,84.511406 152.241180,90.726341 166.961426,83.231209 
	C177.338745,77.947380 183.257538,68.523399 181.829498,56.461563 
	C180.508087,45.300331 174.358536,37.506233 163.204407,33.510548 
	C147.755890,27.976501 130.210007,37.561329 126.698914,53.840904 
	C126.763893,57.241383 126.828865,60.641857 127.008926,64.825333 
M70.030128,60.663261 
	C70.078384,61.107338 70.126633,61.551414 70.015381,62.500004 
	C70.068512,62.668182 70.121643,62.836365 70.036156,63.795544 
	C70.081955,64.862206 70.127754,65.928864 70.015602,67.499977 
	C70.068169,67.668159 70.120735,67.836342 70.024048,68.930740 
	C70.024048,79.193932 70.024048,89.457115 70.024048,99.758827 
	C74.898895,99.758827 79.289757,99.758827 83.384201,99.758827 
	C83.384201,93.049545 83.384201,86.583435 83.384201,79.855537 
	C93.654762,86.746025 103.603706,87.898376 111.228569,83.208252 
	C121.807953,76.700775 125.795029,66.233940 123.697083,55.090160 
	C119.209938,31.255463 103.954109,28.384239 84.041618,37.027046 
	C83.993530,36.013145 83.926468,34.599041 83.864548,33.293350 
	C79.017105,33.293350 74.606071,33.293350 70.171150,33.293350 
	C70.171150,38.722687 70.171150,43.858990 70.009598,49.900311 
	C70.063553,53.268482 70.117500,56.636658 70.030128,60.663261 
M305.940491,63.395908 
	C308.530792,56.502270 310.955322,49.540573 313.750854,42.731194 
	C317.791321,32.889370 317.902771,33.107563 307.224274,32.903702 
	C303.597443,32.834461 301.972473,34.096619 300.939911,37.434250 
	C298.813080,44.309025 296.417267,51.105694 293.945282,57.866165 
	C292.899261,60.726856 291.381927,63.415195 289.867218,66.631088 
	C286.069916,55.998119 282.489319,46.081760 279.005066,36.131660 
	C278.218842,33.886311 277.121765,32.814243 274.502136,32.929382 
	C269.050537,33.168987 263.581055,33.001812 257.196686,33.001812 
	C258.264221,30.429382 258.652527,27.321262 259.894562,26.931166 
	C262.931122,25.977446 266.362335,26.280239 269.797241,26.067196 
	C269.797241,22.543051 269.797241,18.440010 269.797241,14.369065 
	C246.953156,11.066864 244.942352,19.048382 243.574966,33.005341 
	C241.870117,33.005341 240.122147,33.005341 238.198853,33.005341 
	C238.198853,37.126057 238.198853,40.877754 238.198853,44.990120 
	C240.122787,44.990120 241.872086,44.990120 244.166046,44.990120 
	C244.166046,58.543125 244.166046,71.745743 244.166046,84.637825 
	C249.133316,84.637825 253.538696,84.637825 258.295197,84.637825 
	C258.295197,71.197639 258.295197,58.119648 258.295197,45.093880 
	C261.652161,45.093880 264.639130,45.093880 267.741852,45.093880 
	C272.844086,57.420525 277.940643,69.678284 282.982910,81.958344 
	C284.083527,84.638863 282.086700,87.930382 279.087097,87.910255 
	C276.449341,87.892563 273.816895,87.083084 270.786560,86.554260 
	C269.221008,89.666000 267.526093,93.034866 265.347534,97.365044 
	C270.758423,98.444069 275.512634,100.329033 280.175812,100.125702 
	C289.684326,99.711075 298.914703,88.117355 299.950958,78.317642 
	C300.471466,73.395020 303.470825,68.734512 305.940491,63.395908 
M49.511379,46.012264 
	C44.386204,44.347004 39.205162,42.829819 34.168636,40.929596 
	C32.581226,40.330685 30.790787,38.975578 30.114565,37.498882 
	C28.096436,33.091824 31.630852,29.470638 37.697872,28.954536 
	C45.406219,28.298811 51.644005,31.686108 57.661091,36.008209 
	C60.226868,32.353943 62.606983,28.964106 64.929581,25.656179 
	C57.752663,16.297472 36.015862,12.736872 25.780851,19.602837 
	C18.744949,24.322741 15.078300,30.339735 16.023840,38.854240 
	C16.903000,46.770996 21.250246,51.758907 28.903936,54.044991 
	C34.711292,55.779591 40.392563,57.945984 46.222820,59.591061 
	C50.554768,60.813370 52.921581,63.304131 51.903217,67.738106 
	C50.903244,72.091988 47.240955,72.867249 43.262089,73.053703 
	C34.575470,73.460777 27.328564,69.978096 20.780369,64.795906 
	C17.958042,68.070625 15.387937,71.052696 12.647659,74.232216 
	C22.324436,83.411629 33.710175,87.114250 46.438915,85.875511 
	C57.918674,84.758308 63.222443,79.785881 65.778015,69.555748 
	C67.984062,60.724804 65.221527,53.738544 57.367325,48.989914 
	C55.212303,47.686993 52.689598,46.992214 49.511379,46.012264 
M230.685898,26.830729 
	C231.262680,26.241257 231.837738,25.650080 232.416534,25.062586 
	C236.183563,21.239010 236.125137,16.374382 232.288361,12.768019 
	C228.321899,9.039744 223.291916,9.666889 220.120361,13.389831 
	C216.801865,17.285305 217.038345,22.908524 221.462967,25.676308 
	C223.672104,27.058210 227.025757,26.610491 230.685898,26.830729 
z"/>
<path fill="#FEFEFE" opacity="1.000000" stroke="none" 
	d="
M305.644836,63.675694 
	C303.470825,68.734512 300.471466,73.395020 299.950958,78.317642 
	C298.914703,88.117355 289.684326,99.711075 280.175812,100.125702 
	C275.512634,100.329033 270.758423,98.444069 265.347534,97.365044 
	C267.526093,93.034866 269.221008,89.666000 270.786560,86.554260 
	C273.816895,87.083084 276.449341,87.892563 279.087097,87.910255 
	C282.086700,87.930382 284.083527,84.638863 282.982910,81.958344 
	C277.940643,69.678284 272.844086,57.420525 267.741852,45.093880 
	C264.639130,45.093880 261.652161,45.093880 258.295197,45.093880 
	C258.295197,58.119648 258.295197,71.197639 258.295197,84.637825 
	C253.538696,84.637825 249.133316,84.637825 244.166046,84.637825 
	C244.166046,71.745743 244.166046,58.543125 244.166046,44.990120 
	C241.872086,44.990120 240.122787,44.990120 238.198853,44.990120 
	C238.198853,40.877754 238.198853,37.126057 238.198853,33.005341 
	C240.122147,33.005341 241.870117,33.005341 243.574966,33.005341 
	C244.942352,19.048382 246.953156,11.066864 269.797241,14.369065 
	C269.797241,18.440010 269.797241,22.543051 269.797241,26.067196 
	C266.362335,26.280239 262.931122,25.977446 259.894562,26.931166 
	C258.652527,27.321262 258.264221,30.429382 257.196686,33.001812 
	C263.581055,33.001812 269.050537,33.168987 274.502136,32.929382 
	C277.121765,32.814243 278.218842,33.886311 279.005066,36.131660 
	C282.489319,46.081760 286.069916,55.998119 289.867218,66.631088 
	C291.381927,63.415195 292.899261,60.726856 293.945282,57.866165 
	C296.417267,51.105694 298.813080,44.309025 300.939911,37.434250 
	C301.972473,34.096619 303.597443,32.834461 307.224274,32.903702 
	C317.902771,33.107563 317.791321,32.889370 313.750854,42.731194 
	C310.955322,49.540573 308.530792,56.502270 305.644836,63.675694 
z"/>
<path fill="#FEFEFE" opacity="1.000000" stroke="none" 
	d="
M70.173553,66.995514 
	C70.127754,65.928864 70.081955,64.862206 70.339951,63.381039 
	C70.886780,62.809998 71.129814,62.653461 71.372856,62.496929 
	C70.973534,62.329784 70.574203,62.162636 70.174881,61.995491 
	C70.126633,61.551414 70.078384,61.107338 70.395142,60.287117 
	C72.000191,56.194904 73.610733,52.458847 70.171150,48.995293 
	C70.171150,43.858990 70.171150,38.722687 70.171150,33.293350 
	C74.606071,33.293350 79.017105,33.293350 83.864548,33.293350 
	C83.926468,34.599041 83.993530,36.013145 84.041618,37.027046 
	C103.954109,28.384239 119.209938,31.255463 123.697083,55.090160 
	C125.795029,66.233940 121.807953,76.700775 111.228569,83.208252 
	C103.603706,87.898376 93.654762,86.746025 83.384201,79.855537 
	C83.384201,86.583435 83.384201,93.049545 83.384201,99.758827 
	C79.289757,99.758827 74.898895,99.758827 70.024048,99.758827 
	C70.024048,89.457115 70.024048,79.193932 70.333153,68.448524 
	C70.885368,67.809875 71.128471,67.653435 71.371574,67.496994 
	C70.972237,67.329834 70.572899,67.162674 70.173553,66.995514 
M83.965797,58.842434 
	C82.714867,64.668961 88.471558,71.527229 92.622849,72.851616 
	C99.014961,74.890892 104.297844,72.681610 107.952034,66.416214 
	C108.959351,64.689087 109.301384,62.541092 109.783043,60.546211 
	C111.439125,53.687279 104.672661,45.018085 97.699982,44.995037 
	C89.096191,44.966595 86.981339,46.641083 83.254868,56.081242 
	C82.965118,56.402000 82.675369,56.722755 82.385612,57.043510 
	C82.861824,57.365452 83.338036,57.687393 83.965797,58.842434 
z"/>
<path fill="#FDFDFD" opacity="1.000000" stroke="none" 
	d="
M49.923500,46.015320 
	C52.689598,46.992214 55.212303,47.686993 57.367325,48.989914 
	C65.221527,53.738544 67.984062,60.724804 65.778015,69.555748 
	C63.222443,79.785881 57.918674,84.758308 46.438915,85.875511 
	C33.710175,87.114250 22.324436,83.411629 12.647659,74.232216 
	C15.387937,71.052696 17.958042,68.070625 20.780369,64.795906 
	C27.328564,69.978096 34.575470,73.460777 43.262089,73.053703 
	C47.240955,72.867249 50.903244,72.091988 51.903217,67.738106 
	C52.921581,63.304131 50.554768,60.813370 46.222820,59.591061 
	C40.392563,57.945984 34.711292,55.779591 28.903936,54.044991 
	C21.250246,51.758907 16.903000,46.770996 16.023840,38.854240 
	C15.078300,30.339735 18.744949,24.322741 25.780851,19.602837 
	C36.015862,12.736872 57.752663,16.297472 64.929581,25.656179 
	C62.606983,28.964106 60.226868,32.353943 57.661091,36.008209 
	C51.644005,31.686108 45.406219,28.298811 37.697872,28.954536 
	C31.630852,29.470638 28.096436,33.091824 30.114565,37.498882 
	C30.790787,38.975578 32.581226,40.330685 34.168636,40.929596 
	C39.205162,42.829819 44.386204,44.347004 49.923500,46.015320 
z"/>
<path fill="#FEFEFE" opacity="1.000000" stroke="none" 
	d="
M127.174072,53.178543 
	C130.210007,37.561329 147.755890,27.976501 163.204407,33.510548 
	C174.358536,37.506233 180.508087,45.300331 181.829498,56.461563 
	C183.257538,68.523399 177.338745,77.947380 166.961426,83.231209 
	C152.241180,90.726341 131.353516,84.511406 127.270889,64.147949 
	C127.413254,60.039894 127.293663,56.609219 127.174072,53.178543 
M167.972748,56.905952 
	C166.270126,53.931370 165.172180,50.281815 162.749283,48.111229 
	C156.008087,42.072025 148.703918,43.904934 141.891129,51.991573 
	C135.466003,59.618084 142.282166,71.313240 149.017807,72.865517 
	C160.412796,75.491554 167.089279,70.089912 167.972748,56.905952 
z"/>
<path fill="#FEFEFE" opacity="1.000000" stroke="none" 
	d="
M203.074478,71.970520 
	C206.587051,72.175171 210.099640,72.379822 214.899963,72.659508 
	C214.899963,74.856171 214.947006,78.527214 214.846100,82.194183 
	C214.831970,82.707794 214.193893,83.460144 213.672836,83.665016 
	C207.156586,86.226982 200.543991,87.526619 194.135422,83.555573 
	C189.316513,80.569542 187.813065,75.925064 187.959549,70.367569 
	C188.178055,62.078342 188.016235,53.779087 188.016235,45.128235 
	C185.996994,45.128235 184.255676,45.128235 182.256775,45.128235 
	C182.256775,41.029106 182.256775,37.280312 182.256775,33.153706 
	C183.984634,33.067825 185.735123,32.980820 188.018066,32.867348 
	C188.018066,29.534878 188.169479,26.245924 187.974380,22.977654 
	C187.788849,19.869694 189.083023,18.902515 192.067535,18.964787 
	C203.786896,19.209299 201.843933,17.582960 201.986908,28.593176 
	C202.003799,29.894402 201.989197,31.196033 201.989197,32.893505 
	C206.323822,32.893505 210.406006,32.893505 214.729828,32.893505 
	C214.729828,37.017769 214.729828,40.753288 214.729828,44.875652 
	C210.650558,44.875652 206.568192,44.875652 201.975037,44.875652 
	C201.975037,53.176201 201.975037,61.106041 201.790344,69.660957 
	C202.095261,70.847527 202.584869,71.409027 203.074478,71.970520 
z"/>
<path fill="#FEFEFE" opacity="1.000000" stroke="none" 
	d="
M219.151657,40.646339 
	C218.797363,33.000820 218.797363,33.000046 226.157562,33.001068 
	C227.799011,33.001297 229.440460,33.009064 231.540161,33.546410 
	C231.999329,41.212944 231.894562,48.349243 232.084320,55.477707 
	C232.125580,57.027679 233.221893,58.549568 233.832275,60.084393 
	C233.861664,65.312943 233.891052,70.541489 233.510849,76.377411 
	C233.060440,77.141098 233.019623,77.297417 232.978821,77.453735 
	C233.050858,77.416206 233.177948,77.387779 233.185883,77.339676 
	C233.233246,77.052910 233.253113,76.761604 233.282196,76.471825 
	C233.511642,77.473732 233.741074,78.475639 233.682587,80.028717 
	C233.246033,80.520584 233.097397,80.461288 232.948776,80.402000 
	C233.176804,80.612579 233.404831,80.823158 233.632858,81.033737 
	C234.591934,83.775200 233.531250,85.019791 230.717361,85.002289 
	C227.783646,84.984039 224.849777,84.991646 221.458557,84.455261 
	C221.001907,70.875221 221.058029,57.827309 220.922318,44.781387 
	C220.907913,43.397049 219.768936,42.024406 219.151657,40.646339 
z"/>
<path fill="#FEFEFE" opacity="1.000000" stroke="none" 
	d="
M230.273804,26.910536 
	C227.025757,26.610491 223.672104,27.058210 221.462967,25.676308 
	C217.038345,22.908524 216.801865,17.285305 220.120361,13.389831 
	C223.291916,9.666889 228.321899,9.039744 232.288361,12.768019 
	C236.125137,16.374382 236.183563,21.239010 232.416534,25.062586 
	C231.837738,25.650080 231.262680,26.241257 230.273804,26.910536 
z"/>
<path fill="#F4F7F6" opacity="1.000000" stroke="none" 
	d="
M330.105103,38.094421 
	C329.544891,36.824776 328.984680,35.555130 328.324554,34.058983 
	C332.273285,34.004395 334.204987,36.710911 334.125641,39.754177 
	C334.053497,42.521900 332.856262,45.934849 330.938019,47.834465 
	C327.339630,51.397881 322.481598,50.692528 319.499207,46.847366 
	C319.028961,46.241104 319.737915,44.720242 320.352997,43.316452 
	C321.694672,43.779747 322.584961,44.548840 323.483154,45.324760 
	C323.869049,44.365070 324.264526,43.381451 324.660034,42.397827 
	C325.001190,46.473698 327.227661,46.105965 329.977783,45.312218 
	C333.261414,42.458385 333.182831,39.459713 329.974854,37.995811 
	C330.024658,38.019268 330.105103,38.094418 330.105103,38.094421 
z"/>
<path fill="#F4F4F4" opacity="1.000000" stroke="none" 
	d="
M219.072906,41.007648 
	C219.768936,42.024406 220.907913,43.397049 220.922318,44.781387 
	C221.058029,57.827309 221.001907,70.875221 221.005005,84.380997 
	C220.338562,83.243141 219.106628,81.653824 219.086716,80.049477 
	C218.926788,67.157570 218.995422,54.262829 219.072906,41.007648 
z"/>
<path fill="#F6F9F6" opacity="1.000000" stroke="none" 
	d="
M329.829895,45.000351 
	C327.227661,46.105965 325.001190,46.473698 324.660034,42.397827 
	C324.264526,43.381451 323.869049,44.365070 323.483154,45.324760 
	C322.584961,44.548840 321.694672,43.779747 320.484436,43.005188 
	C320.079559,37.039337 320.468048,36.722065 325.782410,37.922047 
	C326.887665,38.171612 328.087646,38.001450 329.674561,38.059570 
	C330.105103,38.094418 330.024658,38.019268 330.000671,38.383533 
	C329.927765,40.831982 329.878845,42.916168 329.829895,45.000351 
z"/>
<path fill="#F5F5F5" opacity="1.000000" stroke="none" 
	d="
M233.906891,59.679157 
	C233.221893,58.549568 232.125580,57.027679 232.084320,55.477707 
	C231.894562,48.349243 231.999329,41.212944 231.995209,33.621170 
	C232.660202,34.961121 233.845886,36.742607 233.904724,38.560558 
	C234.127991,45.458614 233.986557,52.368477 233.906891,59.679157 
z"/>
<path fill="#F8F8F8" opacity="1.000000" stroke="none" 
	d="
M70.090378,49.447800 
	C73.610733,52.458847 72.000191,56.194904 70.465805,59.957901 
	C70.117500,56.636658 70.063553,53.268482 70.090378,49.447800 
z"/>
<path fill="#F4F4F4" opacity="1.000000" stroke="none" 
	d="
M126.936493,53.509724 
	C127.293663,56.609219 127.413254,60.039894 127.213341,63.756454 
	C126.828865,60.641857 126.763893,57.241383 126.936493,53.509724 
z"/>
<path fill="#F1F1F1" opacity="1.000000" stroke="none" 
	d="
M203.040512,71.656464 
	C202.584869,71.409027 202.095261,70.847527 201.854797,70.123199 
	C202.404800,70.421043 202.705673,70.881721 203.040512,71.656464 
z"/>
<path fill="#F8F8F8" opacity="1.000000" stroke="none" 
	d="
M70.095131,62.247749 
	C70.574203,62.162636 70.973534,62.329784 71.372856,62.496929 
	C71.129814,62.653461 70.886780,62.809998 70.409256,62.985542 
	C70.121643,62.836365 70.068512,62.668182 70.095131,62.247749 
z"/>
<path fill="#F8F8F8" opacity="1.000000" stroke="none" 
	d="
M70.094574,67.247742 
	C70.572899,67.162674 70.972237,67.329834 71.371574,67.496994 
	C71.128471,67.653435 70.885368,67.809875 70.407776,67.985413 
	C70.120735,67.836342 70.068169,67.668159 70.094574,67.247742 
z"/>
<path fill="#F5F5F5" opacity="1.000000" stroke="none" 
	d="
M233.279602,76.421051 
	C233.253113,76.761604 233.233246,77.052910 233.185883,77.339676 
	C233.177948,77.387779 233.050858,77.416206 232.978821,77.453735 
	C233.019623,77.297417 233.060440,77.141098 233.141571,76.659531 
	C233.181885,76.334282 233.276993,76.370270 233.279602,76.421051 
z"/>
<path fill="#F5F5F5" opacity="1.000000" stroke="none" 
	d="
M233.611420,81.004745 
	C233.404831,80.823158 233.176804,80.612579 232.948776,80.402000 
	C233.097397,80.461288 233.246033,80.520584 233.518341,80.799522 
	C233.642014,81.019165 233.589966,80.975761 233.611420,81.004745 
z"/>
<path fill="#000000" opacity="1.000000" stroke="none" 
	d="
M83.812660,55.990704 
	C86.981339,46.641083 89.096191,44.966595 97.699982,44.995037 
	C104.672661,45.018085 111.439125,53.687279 109.783043,60.546211 
	C109.301384,62.541092 108.959351,64.689087 107.952034,66.416214 
	C104.297844,72.681610 99.014961,74.890892 92.622849,72.851616 
	C88.471558,71.527229 82.714867,64.668961 83.970016,58.092541 
	C83.920380,56.891998 83.866524,56.441353 83.812660,55.990704 
z"/>
<path fill="#F3F3F3" opacity="1.000000" stroke="none" 
	d="
M83.533768,56.035973 
	C83.866524,56.441353 83.920380,56.891998 83.894241,57.675991 
	C83.338036,57.687393 82.861824,57.365452 82.385612,57.043510 
	C82.675369,56.722755 82.965118,56.402000 83.533768,56.035973 
z"/>
<path fill="#000000" opacity="1.000000" stroke="none" 
	d="
M167.984070,57.326374 
	C167.089279,70.089912 160.412796,75.491554 149.017807,72.865517 
	C142.282166,71.313240 135.466003,59.618084 141.891129,51.991573 
	C148.703918,43.904934 156.008087,42.072025 162.749283,48.111229 
	C165.172180,50.281815 166.270126,53.931370 167.984070,57.326374 
z"/>
<path fill="#000000" opacity="1.000000" stroke="none" 
	d="
M329.977783,45.312218 
	C329.878845,42.916168 329.927765,40.831982 329.950897,38.360077 
	C333.182831,39.459713 333.261414,42.458385 329.977783,45.312218 
z"/>
</svg>